<svg width="1600" height="900" viewBox="0 0 1600 900" fill="none" xmlns="http://www.w3.org/2000/svg">
  <defs>
    <linearGradient id="bg1" x1="0" y1="0" x2="1600" y2="900" gradientUnits="userSpaceOnUse">
      <stop stop-color="#F4F7FB"/>
      <stop offset="1" stop-color="#E9EEF7"/>
    </linearGradient>
    <linearGradient id="nav1" x1="0" y1="0" x2="280" y2="900" gradientUnits="userSpaceOnUse">
      <stop stop-color="#122D73"/>
      <stop offset="1" stop-color="#0D1E4A"/>
    </linearGradient>
    <linearGradient id="hero1" x1="330" y1="110" x2="1540" y2="320" gradientUnits="userSpaceOnUse">
      <stop stop-color="#173B93"/>
      <stop offset="1" stop-color="#355EC9"/>
    </linearGradient>
    <filter id="shadow1" x="-40" y="-40" width="1680" height="980" filterUnits="userSpaceOnUse" color-interpolation-filters="sRGB">
      <feDropShadow dx="0" dy="18" stdDeviation="24" flood-color="#243B72" flood-opacity="0.10"/>
    </filter>
    <filter id="cardShadow1" x="0" y="0" width="1600" height="900" filterUnits="userSpaceOnUse" color-interpolation-filters="sRGB">
      <feDropShadow dx="0" dy="10" stdDeviation="18" flood-color="#0F1A33" flood-opacity="0.07"/>
    </filter>
  </defs>

  <rect width="1600" height="900" fill="url(#bg1)"/>
  <rect x="20" y="20" width="1560" height="860" rx="34" fill="#F7F9FD" filter="url(#shadow1)"/>

  <rect x="20" y="20" width="260" height="860" rx="34" fill="url(#nav1)"/>
  <text x="66" y="112" fill="#F8FAFF" font-size="68" font-weight="800" font-style="italic" font-family="Segoe UI, Arial, sans-serif">SINWOO</text>
  <rect x="67" y="128" width="156" height="20" rx="4" fill="#5E7DE0"/>
  <text x="82" y="144" fill="#FFFFFF" font-size="15" letter-spacing="4" font-family="Segoe UI, Arial, sans-serif">INTERNATIONAL</text>
  <text x="67" y="194" fill="#9FB3EE" font-size="14" letter-spacing="4" font-family="Segoe UI, Arial, sans-serif">EXECUTIVE WORKSPACE</text>

  <rect x="52" y="254" width="196" height="54" rx="18" fill="#3052B7"/>
  <text x="83" y="288" fill="#FFFFFF" font-size="20" font-weight="700" font-family="Segoe UI, Arial, sans-serif">Overview</text>
  <text x="76" y="362" fill="#C4D0F6" font-size="18" font-family="Segoe UI, Arial, sans-serif">Financial Control</text>
  <text x="76" y="418" fill="#C4D0F6" font-size="18" font-family="Segoe UI, Arial, sans-serif">Documents &amp; OCR</text>
  <text x="76" y="474" fill="#C4D0F6" font-size="18" font-family="Segoe UI, Arial, sans-serif">Workforce Time</text>
  <text x="76" y="530" fill="#C4D0F6" font-size="18" font-family="Segoe UI, Arial, sans-serif">HR &amp; Payroll</text>
  <text x="76" y="586" fill="#C4D0F6" font-size="18" font-family="Segoe UI, Arial, sans-serif">Billing Center</text>
  <text x="76" y="642" fill="#C4D0F6" font-size="18" font-family="Segoe UI, Arial, sans-serif">Audit Trail</text>

  <text x="330" y="78" fill="#7E91B9" font-size="14" letter-spacing="4" font-family="Segoe UI, Arial, sans-serif">ONEGATE ENTERPRISE</text>
  <text x="1388" y="78" fill="#243A6B" font-size="18" font-family="Segoe UI, Arial, sans-serif">Deutsch  English  한국어</text>

  <rect x="320" y="110" width="1240" height="180" rx="30" fill="url(#hero1)"/>
  <text x="368" y="172" fill="#9CB7FF" font-size="14" letter-spacing="5" font-family="Segoe UI, Arial, sans-serif">GERMANY-READY COMMAND CENTER</text>
  <text x="368" y="228" fill="#FFFFFF" font-size="48" font-weight="800" font-family="Segoe UI, Arial, sans-serif">Executive Bridge Dashboard</text>
  <text x="368" y="265" fill="#D9E3FF" font-size="22" font-family="Segoe UI, Arial, sans-serif">One screen for finance, attendance, HR, OCR documents, and billing governance.</text>

  <g filter="url(#cardShadow1)">
    <rect x="352" y="318" width="255" height="150" rx="24" fill="#FFFFFF"/>
    <rect x="627" y="318" width="255" height="150" rx="24" fill="#FFFFFF"/>
    <rect x="902" y="318" width="255" height="150" rx="24" fill="#FFFFFF"/>
    <rect x="1177" y="318" width="255" height="150" rx="24" fill="#FFFFFF"/>
  </g>

  <text x="382" y="360" fill="#7E91B9" font-size="14" letter-spacing="3" font-family="Segoe UI, Arial, sans-serif">ACTIVE COMPANIES</text>
  <text x="382" y="419" fill="#10203F" font-size="52" font-weight="700" font-family="Segoe UI, Arial, sans-serif">24</text>
  <text x="382" y="447" fill="#29956A" font-size="18" font-family="Segoe UI, Arial, sans-serif">+3 this month</text>

  <text x="657" y="360" fill="#7E91B9" font-size="14" letter-spacing="3" font-family="Segoe UI, Arial, sans-serif">PENDING OCR DOCS</text>
  <text x="657" y="419" fill="#10203F" font-size="52" font-weight="700" font-family="Segoe UI, Arial, sans-serif">186</text>
  <text x="657" y="447" fill="#D58717" font-size="18" font-family="Segoe UI, Arial, sans-serif">41 need review</text>

  <text x="932" y="360" fill="#7E91B9" font-size="14" letter-spacing="3" font-family="Segoe UI, Arial, sans-serif">MONTHLY BILLING</text>
  <text x="932" y="419" fill="#10203F" font-size="52" font-weight="700" font-family="Segoe UI, Arial, sans-serif">€48K</text>
  <text x="932" y="447" fill="#29956A" font-size="18" font-family="Segoe UI, Arial, sans-serif">97% collection rate</text>

  <text x="1207" y="360" fill="#7E91B9" font-size="14" letter-spacing="3" font-family="Segoe UI, Arial, sans-serif">TODAY ATTENDANCE</text>
  <text x="1207" y="419" fill="#10203F" font-size="52" font-weight="700" font-family="Segoe UI, Arial, sans-serif">92%</text>
  <text x="1207" y="447" fill="#29956A" font-size="18" font-family="Segoe UI, Arial, sans-serif">On-time check-ins</text>

  <g filter="url(#cardShadow1)">
    <rect x="352" y="495" width="758" height="335" rx="28" fill="#FFFFFF"/>
    <rect x="1136" y="495" width="296" height="335" rx="28" fill="#FFFFFF"/>
    <rect x="1450" y="495" width="80" height="335" rx="28" fill="#0E214C"/>
  </g>
  <text x="388" y="544" fill="#10203F" font-size="24" font-weight="700" font-family="Segoe UI, Arial, sans-serif">Operations Momentum</text>
  <text x="388" y="572" fill="#6E81AA" font-size="16" font-family="Segoe UI, Arial, sans-serif">Revenue, document flow, and HR workload in one executive stream</text>

  <polyline points="400,742 474,705 548,717 622,662 696,676 770,624 844,648 918,590 992,608 1066,556" fill="none" stroke="#2F57C1" stroke-width="6" stroke-linecap="round" stroke-linejoin="round"/>
  <polyline points="400,768 474,748 548,731 622,708 696,734 770,698 844,712 918,690 992,664 1066,650" fill="none" stroke="#95AFE8" stroke-width="6" stroke-linecap="round" stroke-linejoin="round"/>
  <line x1="400" y1="792" x2="1060" y2="792" stroke="#D9E1F2" stroke-width="2"/>
  <text x="400" y="815" fill="#8A99BB" font-size="14" font-family="Segoe UI, Arial, sans-serif">Mon</text>
  <text x="534" y="815" fill="#8A99BB" font-size="14" font-family="Segoe UI, Arial, sans-serif">Tue</text>
  <text x="668" y="815" fill="#8A99BB" font-size="14" font-family="Segoe UI, Arial, sans-serif">Wed</text>
  <text x="802" y="815" fill="#8A99BB" font-size="14" font-family="Segoe UI, Arial, sans-serif">Thu</text>
  <text x="936" y="815" fill="#8A99BB" font-size="14" font-family="Segoe UI, Arial, sans-serif">Fri</text>

  <text x="1168" y="544" fill="#10203F" font-size="24" font-weight="700" font-family="Segoe UI, Arial, sans-serif">Priority Queue</text>
  <rect x="1168" y="582" width="232" height="64" rx="18" fill="#F6F8FC"/>
  <rect x="1168" y="660" width="232" height="64" rx="18" fill="#F6F8FC"/>
  <rect x="1168" y="738" width="232" height="64" rx="18" fill="#F6F8FC"/>
  <text x="1190" y="612" fill="#10203F" font-size="16" font-weight="700" font-family="Segoe UI, Arial, sans-serif">17 invoices need mapping</text>
  <text x="1190" y="633" fill="#7B89A8" font-size="14" font-family="Segoe UI, Arial, sans-serif">Finance review queue</text>
  <text x="1190" y="690" fill="#10203F" font-size="16" font-weight="700" font-family="Segoe UI, Arial, sans-serif">3 teams missing check-ins</text>
  <text x="1190" y="711" fill="#7B89A8" font-size="14" font-family="Segoe UI, Arial, sans-serif">Attendance manager</text>
  <text x="1190" y="768" fill="#10203F" font-size="16" font-weight="700" font-family="Segoe UI, Arial, sans-serif">2 accounts need upgrade</text>
  <text x="1190" y="789" fill="#7B89A8" font-size="14" font-family="Segoe UI, Arial, sans-serif">Billing center</text>

  <text x="1475" y="542" fill="#8AA6FF" font-size="13" letter-spacing="3" font-family="Segoe UI, Arial, sans-serif" transform="rotate(90 1475,542)">TODAY</text>
  <text x="1478" y="654" fill="#FFFFFF" font-size="26" font-weight="700" font-family="Segoe UI, Arial, sans-serif" transform="rotate(90 1478,654)">AUDIT</text>
  <text x="1478" y="756" fill="#8AA6FF" font-size="16" font-family="Segoe UI, Arial, sans-serif" transform="rotate(90 1478,756)">ready</text>
</svg>
